<svg width="16" height="16" viewBox="0 0 16 16" fill="none" xmlns="http://www.w3.org/2000/svg">
<g clipPath="url(#clip0_56_1246)">
<path d="M8.70273 6.7375L0.718359 14.7188C0.424609 15.0125 0.424609 15.4875 0.718359 15.7781C1.01211 16.0688 1.48711 16.0719 1.77773 15.7781L3.55898 13.9969H5.68398C7.23711 13.9969 8.74336 13.5469 10.0277 12.7156C10.3746 12.4906 10.1996 11.9969 9.78398 11.9969C9.62461 11.9969 9.49648 11.8688 9.49648 11.7094C9.49648 11.5813 9.58086 11.4719 9.69961 11.4344L12.2309 10.675C12.309 10.65 12.3809 10.6094 12.4402 10.55L13.1402 9.85C13.4559 9.53438 13.2309 8.99687 12.7871 8.99687H11.7809C11.6215 8.99687 11.4934 8.86875 11.4934 8.70938C11.4934 8.58125 11.5777 8.47188 11.6965 8.43437L15.1965 7.38438C15.3215 7.34688 15.4277 7.2625 15.4871 7.14375C15.8246 6.4875 15.9996 5.75313 15.9996 5C15.9996 3.71875 15.4902 2.49062 14.584 1.58438L14.4121 1.4125C13.509 0.509375 12.2809 0 10.9996 0C9.71836 0 8.49023 0.509375 7.58398 1.41562L4.34336 4.65625C2.84336 6.15625 1.99961 8.19063 1.99961 10.3125V12.0406L7.92461 6.11875C8.11836 5.925 8.43711 5.925 8.63086 6.11875C8.79961 6.2875 8.82148 6.54375 8.69961 6.7375H8.70273Z" fill="#E56B6F"/>
</g>
<defs>
<clipPath id="clip0_56_1246">
<rect width="16" height="16" fill="white"/>
</clipPath>
</defs>
</svg>
