<svg width="22" height="18" viewBox="0 0 22 18" fill="none" xmlns="http://www.w3.org/2000/svg">
<g clip-path="url(#clip0_55_1137)">
<path d="M1.65 0C0.739062 0 0 0.739062 0 1.65V15.95C0 16.8609 0.739062 17.6 1.65 17.6H4.95V14.85C4.95 13.9391 5.68906 13.2 6.6 13.2C7.51094 13.2 8.25 13.9391 8.25 14.85V17.6H11.55C12.4609 17.6 13.2 16.8609 13.2 15.95V1.65C13.2 0.739062 12.4609 0 11.55 0H1.65ZM2.2 8.25C2.2 7.9475 2.4475 7.7 2.75 7.7H3.85C4.1525 7.7 4.4 7.9475 4.4 8.25V9.35C4.4 9.6525 4.1525 9.9 3.85 9.9H2.75C2.4475 9.9 2.2 9.6525 2.2 9.35V8.25ZM6.05 7.7H7.15C7.4525 7.7 7.7 7.9475 7.7 8.25V9.35C7.7 9.6525 7.4525 9.9 7.15 9.9H6.05C5.7475 9.9 5.5 9.6525 5.5 9.35V8.25C5.5 7.9475 5.7475 7.7 6.05 7.7ZM8.8 8.25C8.8 7.9475 9.0475 7.7 9.35 7.7H10.45C10.7525 7.7 11 7.9475 11 8.25V9.35C11 9.6525 10.7525 9.9 10.45 9.9H9.35C9.0475 9.9 8.8 9.6525 8.8 9.35V8.25ZM2.75 3.3H3.85C4.1525 3.3 4.4 3.5475 4.4 3.85V4.95C4.4 5.2525 4.1525 5.5 3.85 5.5H2.75C2.4475 5.5 2.2 5.2525 2.2 4.95V3.85C2.2 3.5475 2.4475 3.3 2.75 3.3ZM5.5 3.85C5.5 3.5475 5.7475 3.3 6.05 3.3H7.15C7.4525 3.3 7.7 3.5475 7.7 3.85V4.95C7.7 5.2525 7.4525 5.5 7.15 5.5H6.05C5.7475 5.5 5.5 5.2525 5.5 4.95V3.85ZM9.35 3.3H10.45C10.7525 3.3 11 3.5475 11 3.85V4.95C11 5.2525 10.7525 5.5 10.45 5.5H9.35C9.0475 5.5 8.8 5.2525 8.8 4.95V3.85C8.8 3.5475 9.0475 3.3 9.35 3.3ZM15.4 0C14.7916 0 14.3 0.491562 14.3 1.1V17.6H16.5V6.6H21.45C21.7525 6.6 22 6.3525 22 6.05V1.65C22 1.3475 21.7525 1.1 21.45 1.1H16.5C16.5 0.491562 16.0084 0 15.4 0Z" fill="#2E5077"/>
</g>
<defs>
<clipPath id="clip0_55_1137">
<rect width="22" height="17.6" fill="white"/>
</clipPath>
</defs>
</svg>
